<svg width="50" height="50" fill="none" xmlns="http://www.w3.org/2000/svg"><path d="M48.25 30.22c.36-1.6.54-3.26.54-4.965 0-12.755-10.53-23.099-23.526-23.099-1.367 0-2.712.12-4.026.338A13.761 13.761 0 0013.98.444C6.445.443.338 6.437.338 13.836c0 2.472.676 4.785 1.878 6.776a22.585 22.585 0 00-.48 4.642c0 12.763 10.531 23.107 23.527 23.107 1.472 0 2.915-.135 4.312-.39a13.766 13.766 0 006.453 1.592c7.534 0 13.642-5.994 13.642-13.394a13.184 13.184 0 00-1.42-5.95zm-10.923 6.078c-1.081 1.51-2.689 2.712-4.777 3.56-2.059.842-4.538 1.27-7.347 1.27-3.38 0-6.22-.578-8.429-1.735-1.577-.834-2.884-1.976-3.868-3.373-1.007-1.412-1.51-2.817-1.51-4.177 0-.84.33-1.577.976-2.178.646-.601 1.473-.894 2.457-.894.811 0 1.502.233 2.073.699.541.45 1.007 1.119 1.382 1.983.414.939.872 1.728 1.353 2.351.458.601 1.126 1.104 1.968 1.495.856.398 2.005.601 3.418.601 1.945 0 3.538-.406 4.74-1.21 1.172-.78 1.742-1.727 1.742-2.884 0-.917-.3-1.63-.909-2.194-.638-.585-1.487-1.044-2.509-1.36-1.074-.322-2.531-.675-4.319-1.051-2.441-.51-4.515-1.12-6.167-1.81-1.69-.699-3.05-1.683-4.042-2.9-1.014-1.24-1.517-2.802-1.517-4.635 0-1.743.533-3.32 1.6-4.672 1.044-1.345 2.584-2.397 4.567-3.118C20.155 9.36 22.484 9 25.105 9c2.104 0 3.952.24 5.491.714 1.555.473 2.863 1.112 3.892 1.9 1.036.797 1.803 1.646 2.283 2.525.489.894.737 1.78.737 2.636 0 .827-.323 1.57-.962 2.231-.646.654-1.465.985-2.419.985-.871 0-1.555-.203-2.028-.616-.443-.384-.901-.977-1.405-1.833-.586-1.097-1.3-1.961-2.11-2.57-.79-.585-2.12-.886-3.93-.886-1.69 0-3.057.33-4.078.984-.985.631-1.458 1.36-1.458 2.216 0 .526.15.97.466 1.345.338.398.811.751 1.405 1.044a10.41 10.41 0 001.893.721c.653.18 1.75.443 3.26.789 1.9.398 3.65.841 5.198 1.33 1.563.495 2.922 1.096 4.027 1.802 1.127.722 2.02 1.646 2.651 2.75.639 1.112.954 2.479.954 4.071.008 1.908-.548 3.644-1.645 5.161z" fill="#000" fill-opacity=".7"/></svg>