<svg width="50" height="46" viewBox="0 0 50 46" fill="none" xmlns="http://www.w3.org/2000/svg">
<path fill-rule="evenodd" clip-rule="evenodd" d="M25.0052 0C11.1986 0 0 10.488 0 23.416C0 33.759 7.20874 42.521 17.0286 45.681C18.2547 45.825 18.716 45.107 18.716 44.531V40.511C11.8117 41.947 10.277 37.351 10.277 37.351C9.20369 34.621 7.51524 33.901 7.51524 33.901C5.21485 32.466 7.66903 32.466 7.66903 32.466C10.1232 32.61 11.503 34.908 11.503 34.908C13.8055 38.498 17.3341 37.494 18.715 36.918C18.8666 35.338 19.6334 34.333 20.2475 33.758C14.7261 33.184 8.89505 31.173 8.89505 22.123C8.89505 19.538 9.81563 17.527 11.503 15.803C11.1965 15.228 10.4297 12.786 11.8106 9.626C11.8106 9.626 13.9572 9.052 18.7139 12.068C20.7067 11.494 22.8544 11.35 25.002 11.35C27.1486 11.35 29.2974 11.636 31.2923 12.067C36.048 9.051 38.1956 9.625 38.1956 9.625C39.5765 12.785 38.6549 15.227 38.5021 15.802C40.1894 17.5264 41.1199 19.7833 41.108 22.122C41.108 31.172 35.279 33.04 29.7555 33.614C30.6772 34.332 31.4429 35.769 31.4429 37.924V44.388C31.4429 44.962 31.9043 45.68 33.1303 45.538C43.1029 42.378 50.16 33.614 50.16 23.272C50.0073 10.487 38.8076 0.00199997 25.001 0.00199997L25.0052 0Z" fill="#121212"/>
</svg>
