<svg width="50" height="50" viewBox="0 0 50 50" fill="none" xmlns="http://www.w3.org/2000/svg">
<path d="M48.2498 30.2209C48.6104 28.6208 48.7907 26.9607 48.7907 25.2554C48.7907 12.5 38.2588 2.15598 25.263 2.15598C23.8958 2.15598 22.5512 2.27617 21.2366 2.49402C19.1332 1.19444 16.6467 0.443237 13.98 0.443237C6.44541 0.443237 0.338135 6.43783 0.338135 13.8372C0.338135 16.3086 1.01422 18.6223 2.21614 20.613C1.90063 22.1154 1.73537 23.6704 1.73537 25.2554C1.73537 38.0184 12.2672 48.3624 25.263 48.3624C26.7354 48.3624 28.1777 48.2272 29.5749 47.9718C31.4905 48.9859 33.6915 49.5643 36.0277 49.5643C43.5623 49.5643 49.6696 43.5697 49.6696 36.1704C49.6621 34.0295 49.1587 32.0087 48.2498 30.2209ZM37.3273 36.2981C36.2456 37.808 34.638 39.0099 32.5497 39.8588C30.4914 40.7001 28.0124 41.1283 25.2029 41.1283C21.8225 41.1283 18.983 40.5499 16.7744 39.3931C15.1969 38.5592 13.8898 37.4174 12.9057 36.0202C11.8991 34.6079 11.3958 33.2031 11.3958 31.8435C11.3958 31.0021 11.7264 30.266 12.3724 29.665C13.0184 29.064 13.8447 28.7711 14.8288 28.7711C15.6401 28.7711 16.3312 29.0039 16.9021 29.4697C17.443 29.9204 17.9087 30.589 18.2844 31.4529C18.6975 32.3919 19.1557 33.1806 19.6365 33.8041C20.0947 34.4051 20.7633 34.9084 21.6047 35.299C22.461 35.6971 23.6104 35.9 25.0226 35.9C26.9682 35.9 28.5608 35.4943 29.7627 34.6905C30.9346 33.9093 31.5055 32.9628 31.5055 31.8059C31.5055 30.8894 31.205 30.1758 30.5965 29.6124C29.958 29.0265 29.1092 28.5682 28.0875 28.2527C27.0133 27.9297 25.556 27.5766 23.7681 27.201C21.3267 26.6902 19.2534 26.0818 17.6008 25.3907C15.9106 24.692 14.5509 23.708 13.5593 22.491C12.5452 21.2515 12.0419 19.689 12.0419 17.8561C12.0419 16.1133 12.5752 14.5358 13.6419 13.1836C14.6861 11.839 16.2261 10.7873 18.2092 10.0661C20.1548 9.36 22.4836 8.99943 25.1053 8.99943C27.2086 8.99943 29.0566 9.23981 30.5965 9.71307C32.1515 10.1863 33.4586 10.8248 34.4878 11.6136C35.5244 12.4099 36.2907 13.2587 36.7714 14.1376C37.2597 15.0316 37.5076 15.918 37.5076 16.7744C37.5076 17.6007 37.1846 18.3444 36.5461 19.0054C35.9 19.659 35.0812 19.9895 34.1272 19.9895C33.2558 19.9895 32.5722 19.7867 32.099 19.3735C31.6557 18.9904 31.1975 18.397 30.6942 17.5406C30.1083 16.4438 29.3946 15.58 28.5833 14.9715C27.7946 14.3855 26.4649 14.0851 24.6545 14.0851C22.9643 14.0851 21.5972 14.4156 20.5755 15.0691C19.5914 15.7001 19.1182 16.4288 19.1182 17.2852C19.1182 17.811 19.2684 18.2542 19.5839 18.6298C19.922 19.028 20.3952 19.381 20.9887 19.674C21.6122 19.982 22.2432 20.2224 22.8817 20.3952C23.5353 20.5754 24.632 20.8384 26.1419 21.1839C28.0425 21.5821 29.7928 22.0253 31.3402 22.5135C32.9027 23.0093 34.2624 23.6103 35.3667 24.3164C36.4935 25.0376 37.3874 25.9616 38.0184 27.0658C38.6569 28.1776 38.9725 29.5448 38.9725 31.1373C38.98 33.0454 38.4241 34.7807 37.3273 36.2981Z" fill="black" fill-opacity="0.7"/>
</svg>
