<svg width="124" height="125" viewBox="0 0 124 125" fill="none" xmlns="http://www.w3.org/2000/svg">
<g clip-path="url(#clip0)">
<path d="M28.0938 72.1875C28.0938 64.8424 34.069 58.8672 41.4141 58.8672H82.5859C85.9245 58.8672 88.6406 56.1511 88.6406 52.8125V18.6641C88.6406 8.64828 80.4923 0.5 70.4766 0.5H53.5234C43.5077 0.5 35.3594 8.64828 35.3594 18.6641V28.5938H62C64.0066 28.5938 65.6328 30.22 65.6328 32.2266C65.6328 34.2331 64.0066 35.8594 62 35.8594H18.1641C8.14828 35.8594 0 44.0077 0 54.0234V70.9766C0 80.9923 8.14828 89.1406 18.1641 89.1406H28.0938V72.1875ZM53.5234 18.9062C51.5169 18.9062 49.8906 17.28 49.8906 15.2734C49.8906 13.2669 51.5169 11.6406 53.5234 11.6406C55.53 11.6406 57.1562 13.2669 57.1562 15.2734C57.1562 17.28 55.53 18.9062 53.5234 18.9062Z" fill="#376F9E"/>
<path d="M105.836 35.8594H95.9062V52.8125C95.9062 60.1576 89.931 66.1328 82.5859 66.1328H41.4141C38.0755 66.1328 35.3594 68.8489 35.3594 72.1875V106.336C35.3594 116.352 43.5077 124.5 53.5234 124.5H70.4766C80.4923 124.5 88.6406 116.352 88.6406 106.336V96.4062H62C59.9934 96.4062 58.3672 94.78 58.3672 92.7734C58.3672 90.7669 59.9934 89.1406 62 89.1406H105.836C115.852 89.1406 124 80.9923 124 70.9766V54.0234C124 44.0077 115.852 35.8594 105.836 35.8594ZM70.4766 106.094C72.4831 106.094 74.1094 107.72 74.1094 109.727C74.1094 111.733 72.4831 113.359 70.4766 113.359C68.47 113.359 66.8438 111.733 66.8438 109.727C66.8438 107.72 68.47 106.094 70.4766 106.094Z" fill="#FFD242"/>
</g>
<defs>
<clipPath id="clip0">
<rect width="124" height="124" fill="white" transform="translate(0 0.5)"/>
</clipPath>
</defs>
</svg>
