<svg width="50" height="50" viewBox="0 0 50 50" fill="none" xmlns="http://www.w3.org/2000/svg">
<path d="M48.2495 30.2208C48.6101 28.6207 48.7904 26.9605 48.7904 25.2553C48.7904 12.4999 38.2586 2.15586 25.2628 2.15586C23.8956 2.15586 22.5509 2.27605 21.2363 2.4939C19.133 1.19432 16.6465 0.443115 13.9797 0.443115C6.44516 0.443115 0.337891 6.4377 0.337891 13.837C0.337891 16.3085 1.01397 18.6222 2.2159 20.6129C1.90039 22.1153 1.73513 23.6703 1.73513 25.2553C1.73513 38.0182 12.267 48.3623 25.2628 48.3623C26.7351 48.3623 28.1774 48.2271 29.5747 47.9717C31.4902 48.9858 33.6913 49.5642 36.0275 49.5642C43.562 49.5642 49.6693 43.5696 49.6693 36.1703C49.6618 34.0294 49.1585 32.0086 48.2495 30.2208ZM37.3271 36.298C36.2453 37.8079 34.6378 39.0098 32.5494 39.8587C30.4911 40.7 28.0122 41.1282 25.2027 41.1282C21.8223 41.1282 18.9827 40.5498 16.7742 39.3929C15.1967 38.5591 13.8896 37.4173 12.9055 36.02C11.8989 34.6078 11.3956 33.203 11.3956 31.8434C11.3956 31.002 11.7261 30.2658 12.3721 29.6649C13.0182 29.0639 13.8445 28.7709 14.8286 28.7709C15.6399 28.7709 16.331 29.0038 16.9019 29.4696C17.4428 29.9203 17.9085 30.5888 18.2841 31.4527C18.6973 32.3917 19.1555 33.1805 19.6363 33.804C20.0945 34.405 20.7631 34.9083 21.6044 35.2989C22.4608 35.697 23.6101 35.8998 25.0224 35.8998C26.968 35.8998 28.5605 35.4942 29.7625 34.6904C30.9343 33.9092 31.5053 32.9626 31.5053 31.8058C31.5053 30.8893 31.2048 30.1757 30.5963 29.6123C29.9578 29.0263 29.1089 28.5681 28.0873 28.2526C27.0131 27.9296 25.5557 27.5765 23.7679 27.2009C21.3265 26.6901 19.2532 26.0816 17.6005 25.3905C15.9103 24.6919 14.5506 23.7078 13.559 22.4909C12.5449 21.2514 12.0416 19.6889 12.0416 17.856C12.0416 16.1132 12.575 14.5357 13.6417 13.1835C14.6858 11.8388 16.2258 10.7872 18.209 10.066C20.1546 9.35988 22.4833 8.9993 25.105 8.9993C27.2084 8.9993 29.0563 9.23969 30.5963 9.71294C32.1513 10.1862 33.4584 10.8247 34.4875 11.6135C35.5242 12.4098 36.2904 13.2586 36.7712 14.1375C37.2595 15.0315 37.5074 15.9179 37.5074 16.7742C37.5074 17.6006 37.1843 18.3443 36.5458 19.0053C35.8998 19.6589 35.081 19.9894 34.127 19.9894C33.2556 19.9894 32.572 19.7866 32.0987 19.3734C31.6555 18.9903 31.1973 18.3968 30.694 17.5405C30.108 16.4437 29.3944 15.5798 28.5831 14.9714C27.7943 14.3854 26.4647 14.0849 24.6543 14.0849C22.9641 14.0849 21.5969 14.4155 20.5753 15.069C19.5912 15.7 19.1179 16.4287 19.1179 17.2851C19.1179 17.8109 19.2682 18.2541 19.5837 18.6297C19.9217 19.0278 20.395 19.3809 20.9884 19.6739C21.6119 19.9819 22.2429 20.2223 22.8815 20.395C23.535 20.5753 24.6318 20.8382 26.1417 21.1838C28.0422 21.5819 29.7925 22.0251 31.34 22.5134C32.9025 23.0092 34.2622 23.6102 35.3664 24.3163C36.4932 25.0375 37.3872 25.9614 38.0182 27.0657C38.6567 28.1775 38.9722 29.5447 38.9722 31.1372C38.9797 33.0453 38.4238 34.7806 37.3271 36.298Z" fill="#039BE5"/>
</svg>
