<svg width="50" height="50" viewBox="0 0 50 50" fill="none" xmlns="http://www.w3.org/2000/svg">
<path d="M25 50C38.8071 50 50 38.8071 50 25C50 11.1929 38.8071 0 25 0C11.1929 0 0 11.1929 0 25C0 38.8071 11.1929 50 25 50Z" fill="#4D76A1"/>
<path fill-rule="evenodd" clip-rule="evenodd" d="M24.0561 35.9648H26.0182C26.0182 35.9648 26.611 35.8997 26.9136 35.5735C27.1921 35.274 27.1832 34.7116 27.1832 34.7116C27.1832 34.7116 27.1448 32.0787 28.3668 31.691C29.5714 31.3091 31.1183 34.2357 32.7578 35.3609C33.9976 36.2126 34.9397 36.0258 34.9397 36.0258L39.3235 35.9648C39.3235 35.9648 41.6168 35.8235 40.5295 34.0204C40.4403 33.8729 39.8962 32.6866 37.27 30.2489C34.5212 27.6975 34.8893 28.1102 38.2005 23.697C40.2171 21.0093 41.0232 19.3684 40.7715 18.6656C40.5312 17.9962 39.0481 18.1731 39.0481 18.1731L34.1121 18.2039C34.1121 18.2039 33.7462 18.154 33.4748 18.3162C33.2097 18.4753 33.039 18.8461 33.039 18.8461C33.039 18.8461 32.2578 20.9259 31.2159 22.6947C29.0179 26.427 28.1391 26.624 27.7799 26.3922C26.9443 25.8521 27.1529 24.2224 27.1529 23.0646C27.1529 19.4477 27.7015 17.9396 26.0847 17.5492C25.5481 17.4196 25.1532 17.334 23.7811 17.3202C22.0199 17.3019 20.5292 17.3255 19.6851 17.7391C19.1236 18.014 18.6904 18.6268 18.9543 18.662C19.2805 18.7057 20.0194 18.8612 20.4111 19.3947C20.9169 20.0827 20.8991 21.6283 20.8991 21.6283C20.8991 21.6283 21.1896 25.886 20.2204 26.415C19.555 26.7777 18.6423 26.0371 16.6828 22.651C15.6788 20.9166 14.9207 18.9994 14.9207 18.9994C14.9207 18.9994 14.7745 18.6411 14.5138 18.4494C14.1974 18.2173 13.7553 18.1433 13.7553 18.1433L9.06488 18.174C9.06488 18.174 8.36076 18.1936 8.10228 18.4998C7.87233 18.7721 8.08401 19.3354 8.08401 19.3354C8.08401 19.3354 11.7562 27.9266 15.9141 32.2561C19.7266 36.2255 24.0561 35.9648 24.0561 35.9648Z" fill="white"/>
</svg>
